<svg width="162" height="162" viewBox="0 0 162 162" fill="none" xmlns="http://www.w3.org/2000/svg">
<path d="M77 0H0.0999756V76.9H77V0Z" fill="#E54839"/>
<path d="M161.1 84.4H84.2V161.3H161.1V84.4Z" fill="#174A96"/>
<path d="M161.317 77.05V0.149994L84.4172 0.149994L84.4172 77.05L161.317 77.05Z" fill="#2776B6"/>
<path d="M76.9256 161.15L76.9256 84.25L0.025589 84.25L0.025589 161.15H76.9256Z" fill="#E9AE55"/>
<path d="M71.3 155.6H38.6C20.5 155.6 5.90002 140.9 5.90002 122.9C5.90002 104.8 20.6 90.2 38.6 90.2H71.3V155.6Z" fill="#2776B7"/>
<path d="M122.7 71.2C104.6 71.2 90 56.5 90 38.4C90 20.3 104.7 5.70001 122.7 5.70001C140.8 5.70001 155.4 20.4 155.4 38.4C155.4 56.5 140.8 71.2 122.7 71.2Z" fill="#E9AE55"/>
<path d="M122.7 94.5L139 122.8L155.4 151.2H122.7H90L106.3 122.8L122.7 94.5Z" fill="#E54839"/>
<path d="M71.3 5.70001H5.90002V71.1H71.3V5.70001Z" fill="#174A96"/>
</svg>
