<svg width="102" height="121" viewBox="0 0 102 121" fill="none" xmlns="http://www.w3.org/2000/svg">
<path d="M48.6866 0H0.0631714V48.6235H48.6866V0Z" fill="#E54839"/>
<path d="M101.863 53.3657H53.2392V101.989H101.863V53.3657Z" fill="#174A96"/>
<path d="M102 48.7183L102 0.0948486L53.3765 0.0948486L53.3765 48.7183L102 48.7183Z" fill="#2776B6"/>
<path d="M48.6396 101.894L48.6396 53.2708L0.0161209 53.2708L0.0161209 101.894H48.6396Z" fill="#E9AE55"/>
<path d="M19.5379 120.958C16.5029 120.958 14.0369 118.492 14.0369 115.457V114.066C14.0369 111.031 16.5029 108.565 19.5379 108.565V120.958Z" fill="#E8AD54"/>
<path d="M20.676 120.958C23.711 120.958 26.177 118.492 26.177 115.457V114.066C26.177 111.031 23.711 108.565 20.676 108.565V120.958Z" fill="#174A96"/>
<path d="M47.675 120.958C44.64 120.958 42.1741 118.492 42.1741 115.457V114.066C42.1741 111.031 44.64 108.565 47.675 108.565V120.958Z" fill="#174A96"/>
<path d="M48.7499 120.958C51.785 120.958 54.2509 118.492 54.2509 115.457V114.066C54.2509 111.031 51.785 108.565 48.7499 108.565V120.958Z" fill="#E8AD55"/>
<path d="M57.855 117.227C56.0213 115.394 56.0213 112.485 57.855 110.715L58.677 109.893C60.5106 108.059 63.4192 108.059 65.1896 109.893L57.855 117.227Z" fill="#E54839"/>
<path d="M63.8618 112.232C65.6954 114.066 65.6954 116.974 63.8618 118.745L63.0398 119.567C61.2061 121.401 58.2976 121.401 56.5272 119.567L63.8618 112.232Z" fill="#2676B9"/>
<path d="M5.50096 108.502H0V120.895H5.50096V108.502Z" fill="#2776B7"/>
<path d="M9.35802 120.958C10.8945 120.958 12.1401 119.712 12.1401 118.176C12.1401 116.639 10.8945 115.394 9.35802 115.394C7.82152 115.394 6.57593 116.639 6.57593 118.176C6.57593 119.712 7.82152 120.958 9.35802 120.958Z" fill="#E54839"/>
<path d="M68.1614 120.958C68.9296 120.958 69.5524 120.335 69.5524 119.567C69.5524 118.799 68.9296 118.176 68.1614 118.176C67.3931 118.176 66.7703 118.799 66.7703 119.567C66.7703 120.335 67.3931 120.958 68.1614 120.958Z" fill="#E9AE55"/>
<path d="M33.638 120.958C30.603 120.958 28.1371 118.492 28.1371 115.457V114.066C28.1371 111.031 30.603 108.565 33.638 108.565V120.958Z" fill="#E54839"/>
<path d="M40.214 114.003V114.572H34.713V108.502C37.748 108.502 40.214 110.968 40.214 114.003Z" fill="black"/>
<path d="M40.214 114.003V114.572H34.713V108.502C37.748 108.502 40.214 110.968 40.214 114.003Z" fill="#2776B6"/>
<path d="M40.214 115.71H34.713V120.958L37.4951 119.82L40.214 120.958V115.71Z" fill="#E8AD54"/>
<path d="M87.1935 120.958H79.9853L78.2149 117.797L76.3812 114.698L79.9853 108.502L83.5894 114.698L87.1935 120.958Z" fill="#E54839"/>
<path d="M78.9736 120.958H72.8403L74.6108 117.796L75.9386 115.583L77.4561 118.239L78.9736 120.958Z" fill="#174A96"/>
<path d="M95.097 120.958H89.5961L96.3616 108.502H101.863L95.097 120.958Z" fill="#E9AE55"/>
<path d="M99.1438 118.176C97.6263 118.176 96.3617 119.44 96.3617 120.958H101.863C101.863 119.377 100.661 118.176 99.1438 118.176Z" fill="#E54839"/>
<path d="M92.315 111.284C90.7975 111.284 89.5329 110.019 89.5329 108.502H95.0339C95.0971 110.019 93.8957 111.284 92.315 111.284Z" fill="#2776B7"/>
<path d="M45.0826 98.385H24.4066C12.962 98.385 3.73053 89.0903 3.73053 77.709C3.73053 66.2645 13.0253 57.033 24.4066 57.033H45.0826V98.385Z" fill="#2776B7"/>
<path d="M77.5826 45.0194C66.1381 45.0194 56.9066 35.7247 56.9066 24.2801C56.9066 12.8356 66.2013 3.6041 77.5826 3.6041C89.0271 3.6041 98.2586 12.8988 98.2586 24.2801C98.2586 35.7247 89.0271 45.0194 77.5826 45.0194Z" fill="#E9AE55"/>
<path d="M77.5826 59.7518L87.889 77.6458L98.2586 95.6029H77.5826H56.9066L67.213 77.6458L77.5826 59.7518Z" fill="#E54839"/>
<path d="M45.0826 3.6041H3.73053V44.9562H45.0826V3.6041Z" fill="#174A96"/>
</svg>
